HIERARCHY
ROOT Hips
{
	OFFSET 0.000000 121.760803 0.000000
	CHANNELS 6 Xposition Yposition Zposition Xrotation Yrotation Zrotation 
	JOINT Spine
	{
		OFFSET 0.072000 7.257294 -0.789700
		CHANNELS 3 Xrotation Yrotation Zrotation
		JOINT Spine1
		{
			OFFSET 0.000000 12.508769 -0.658067
			CHANNELS 3 Xrotation Yrotation Zrotation
			JOINT Spine1_split
			{
				OFFSET 0.000000 12.508769 -0.658067
				CHANNELS 3 Xrotation Yrotation Zrotation
				JOINT Spine2
				{
					OFFSET 0.000000 12.508769 -0.658067
					CHANNELS 3 Xrotation Yrotation Zrotation
					JOINT Neck
					{
						OFFSET 0.000000 14.033295 7.520400
						CHANNELS 3 Xrotation Yrotation Zrotation
						JOINT Head
						{
							OFFSET 0.000000 8.198502 5.703100
							CHANNELS 3 Xrotation Yrotation Zrotation
							JOINT HeadTop_End
							{
								OFFSET 0.000000 17.760803 13.332701
								CHANNELS 3 Xrotation Yrotation Zrotation
								End Site
								{
									OFFSET 0.000000 0.000000 0.000000
								}
							}
						}
					}
					JOINT LeftShoulder
					{
						OFFSET 6.292450 5.785301 -0.669000
						CHANNELS 3 Xrotation Yrotation Zrotation
						JOINT LeftShoulder_split
						{
							OFFSET 6.292450 5.785301 -0.669000
							CHANNELS 3 Xrotation Yrotation Zrotation
							JOINT LeftArm
							{
								OFFSET 13.907140 -6.093903 1.965100
								CHANNELS 3 Xrotation Yrotation Zrotation
								JOINT LeftForeArm
								{
									OFFSET 34.140198 0.000000 0.000000
									CHANNELS 3 Xrotation Yrotation Zrotation
									JOINT LeftHand
									{
										OFFSET 40.960209 0.000000 0.000000
										CHANNELS 3 Xrotation Yrotation Zrotation
										JOINT LeftHandThumb1
										{
											OFFSET 10.006996 -7.170425 9.573125
											CHANNELS 3 Xrotation Yrotation Zrotation
											JOINT LeftHandThumb2
											{
												OFFSET 1.835007 -1.059448 1.059443
												CHANNELS 3 Xrotation Yrotation Zrotation
												JOINT LeftHandThumb3
												{
													OFFSET 2.112267 -1.219513 1.219518
													CHANNELS 3 Xrotation Yrotation Zrotation
													JOINT LeftHandThumb4
													{
														OFFSET 4.843811 -2.796570 2.796576
														CHANNELS 3 Xrotation Yrotation Zrotation
														End Site
														{
															OFFSET 0.000000 0.000000 0.000000
														}
													}
												}
											}
										}
										JOINT LeftHandIndex1
										{
											OFFSET 18.389847 -0.922348 4.596882
											CHANNELS 3 Xrotation Yrotation Zrotation
											JOINT LeftHandIndex2
											{
												OFFSET 4.711273 0.000000 0.000000
												CHANNELS 3 Xrotation Yrotation Zrotation
												JOINT LeftHandIndex3
												{
													OFFSET 2.886131 0.000000 0.000000
													CHANNELS 3 Xrotation Yrotation Zrotation
													JOINT LeftHandIndex4
													{
														OFFSET 6.145912 0.000000 0.000000
														CHANNELS 3 Xrotation Yrotation Zrotation
														End Site
														{
															OFFSET 0.000000 0.000000 0.000000
														}
													}
												}
											}
										}
										JOINT LeftHandMiddle1
										{
											OFFSET 18.013008 0.000000 0.000000
											CHANNELS 3 Xrotation Yrotation Zrotation
											JOINT LeftHandMiddle2
											{
												OFFSET 4.946693 0.000000 0.000000
												CHANNELS 3 Xrotation Yrotation Zrotation
												JOINT LeftHandMiddle3
												{
													OFFSET 3.342232 0.000000 0.000000
													CHANNELS 3 Xrotation Yrotation Zrotation
													JOINT LeftHandMiddle4
													{
														OFFSET 4.461754 0.000000 0.000000
														CHANNELS 3 Xrotation Yrotation Zrotation
														End Site
														{
															OFFSET 0.000000 0.000000 0.000000
														}
													}
												}
											}
										}
										JOINT LeftHandRing1
										{
											OFFSET 15.849892 -0.102921 -4.126150
											CHANNELS 3 Xrotation Yrotation Zrotation
											JOINT LeftHandRing2
											{
												OFFSET 3.527054 0.000000 0.000000
												CHANNELS 3 Xrotation Yrotation Zrotation
												JOINT LeftHandRing3
												{
													OFFSET 2.961098 0.000000 0.000000
													CHANNELS 3 Xrotation Yrotation Zrotation
													JOINT LeftHandRing4
													{
														OFFSET 4.927200 0.000000 0.000000
														CHANNELS 3 Xrotation Yrotation Zrotation
														End Site
														{
															OFFSET 0.000000 0.000000 0.000000
														}
													}
												}
											}
										}
										JOINT LeftHandPinky1
										{
											OFFSET 12.791824 -0.832031 -6.799156
											CHANNELS 3 Xrotation Yrotation Zrotation
											JOINT LeftHandPinky2
											{
												OFFSET 3.327133 0.000000 0.000000
												CHANNELS 3 Xrotation Yrotation Zrotation
												JOINT LeftHandPinky3
												{
													OFFSET 3.014900 0.000000 0.000000
													CHANNELS 3 Xrotation Yrotation Zrotation
													JOINT LeftHandPinky4
													{
														OFFSET 5.847786 0.000000 0.000000
														CHANNELS 3 Xrotation Yrotation Zrotation
														End Site
														{
															OFFSET 0.000000 0.000000 0.000000
														}
													}
												}
											}
										}
									}
								}
							}
						}
					}
					JOINT RightShoulder
					{
						OFFSET -6.292450 5.785301 -0.669000
						CHANNELS 3 Xrotation Yrotation Zrotation
						JOINT RightShoulder_split
						{
							OFFSET -6.292450 5.785301 -0.669000
							CHANNELS 3 Xrotation Yrotation Zrotation
							JOINT RightArm
							{
								OFFSET -13.907140 -6.093903 1.965100
								CHANNELS 3 Xrotation Yrotation Zrotation
								JOINT RightForeArm
								{
									OFFSET -34.140198 0.000000 0.000000
									CHANNELS 3 Xrotation Yrotation Zrotation
									JOINT RightHand
									{
										OFFSET -40.960209 0.000000 0.000000
										CHANNELS 3 Xrotation Yrotation Zrotation
										JOINT RightHandThumb1
										{
											OFFSET -10.007050 -7.170456 9.573117
											CHANNELS 3 Xrotation Yrotation Zrotation
											JOINT RightHandThumb2
											{
												OFFSET -1.835007 -1.059448 1.059443
												CHANNELS 3 Xrotation Yrotation Zrotation
												JOINT RightHandThumb3
												{
													OFFSET -2.112267 -1.219513 1.219518
													CHANNELS 3 Xrotation Yrotation Zrotation
													JOINT RightHandThumb4
													{
														OFFSET -4.843834 -2.796585 2.796590
														CHANNELS 3 Xrotation Yrotation Zrotation
														End Site
														{
															OFFSET 0.000000 0.000000 0.000000
														}
													}
												}
											}
										}
										JOINT RightHandIndex1
										{
											OFFSET -18.389870 -0.922424 4.596786
											CHANNELS 3 Xrotation Yrotation Zrotation
											JOINT RightHandIndex2
											{
												OFFSET -4.711273 0.000000 0.000000
												CHANNELS 3 Xrotation Yrotation Zrotation
												JOINT RightHandIndex3
												{
													OFFSET -2.886131 0.000000 0.000000
													CHANNELS 3 Xrotation Yrotation Zrotation
													JOINT RightHandIndex4
													{
														OFFSET -6.145920 0.000000 0.000000
														CHANNELS 3 Xrotation Yrotation Zrotation
														End Site
														{
															OFFSET 0.000000 0.000000 0.000000
														}
													}
												}
											}
										}
										JOINT RightHandMiddle1
										{
											OFFSET -18.013008 0.000000 0.000000
											CHANNELS 3 Xrotation Yrotation Zrotation
											JOINT RightHandMiddle2
											{
												OFFSET -4.946693 0.000000 0.000000
												CHANNELS 3 Xrotation Yrotation Zrotation
												JOINT RightHandMiddle3
												{
													OFFSET -3.342232 0.000000 0.000000
													CHANNELS 3 Xrotation Yrotation Zrotation
													JOINT RightHandMiddle4
													{
														OFFSET -4.461754 0.000000 0.000000
														CHANNELS 3 Xrotation Yrotation Zrotation
														End Site
														{
															OFFSET 0.000000 0.000000 0.000000
														}
													}
												}
											}
										}
										JOINT RightHandRing1
										{
											OFFSET -15.849876 -0.102936 -4.126237
											CHANNELS 3 Xrotation Yrotation Zrotation
											JOINT RightHandRing2
											{
												OFFSET -3.527054 0.000000 0.000000
												CHANNELS 3 Xrotation Yrotation Zrotation
												JOINT RightHandRing3
												{
													OFFSET -2.961098 0.000000 0.000000
													CHANNELS 3 Xrotation Yrotation Zrotation
													JOINT RightHandRing4
													{
														OFFSET -4.927200 0.000000 0.000000
														CHANNELS 3 Xrotation Yrotation Zrotation
														End Site
														{
															OFFSET 0.000000 0.000000 0.000000
														}
													}
												}
											}
										}
										JOINT RightHandPinky1
										{
											OFFSET -12.791786 -0.832077 -6.799222
											CHANNELS 3 Xrotation Yrotation Zrotation
											JOINT RightHandPinky2
											{
												OFFSET -3.327133 0.000000 0.000000
												CHANNELS 3 Xrotation Yrotation Zrotation
												JOINT RightHandPinky3
												{
													OFFSET -3.014900 0.000000 0.000000
													CHANNELS 3 Xrotation Yrotation Zrotation
													JOINT RightHandPinky4
													{
														OFFSET -5.847786 0.000000 0.000000
														CHANNELS 3 Xrotation Yrotation Zrotation
														End Site
														{
															OFFSET 0.000000 0.000000 0.000000
														}
													}
												}
											}
										}
									}
								}
							}
						}
					}
				}
			}
		}
	}
	JOINT LeftUpLeg
	{
		OFFSET 13.026900 -6.336304 -1.092800
		CHANNELS 3 Xrotation Yrotation Zrotation
		JOINT LeftLeg
		{
			OFFSET 0.524474 -46.096886 9.782700
			CHANNELS 3 Xrotation Yrotation Zrotation
			JOINT LeftFoot
			{
				OFFSET -0.524474 -53.427422 -12.948200
				CHANNELS 3 Xrotation Yrotation Zrotation
				JOINT LeftToeBase
				{
					OFFSET 0.192200 -14.009700 16.364100
					CHANNELS 3 Xrotation Yrotation Zrotation
					JOINT LeftToe_End
					{
						OFFSET -1.784700 -0.561700 9.474800
						CHANNELS 3 Xrotation Yrotation Zrotation
						End Site
						{
							OFFSET 0.000000 0.000000 0.000000
						}
					}
				}
			}
		}
	}
	JOINT RightUpLeg
	{
		OFFSET -12.883000 -6.336304 -1.092800
		CHANNELS 3 Xrotation Yrotation Zrotation
		JOINT RightLeg
		{
			OFFSET -0.524587 -46.096825 9.782800
			CHANNELS 3 Xrotation Yrotation Zrotation
			JOINT RightFoot
			{
				OFFSET 0.524587 -53.427383 -12.948300
				CHANNELS 3 Xrotation Yrotation Zrotation
				JOINT RightToeBase
				{
					OFFSET -0.192200 -14.009700 16.364100
					CHANNELS 3 Xrotation Yrotation Zrotation
					JOINT RightToe_End
					{
						OFFSET 1.784700 -0.561700 9.474800
						CHANNELS 3 Xrotation Yrotation Zrotation
						End Site
						{
							OFFSET 0.000000 0.000000 0.000000
						}
					}
				}
			}
		}
	}
}
MOTION
Frames: 4
Frame Time: 0.016667
-20.191317 113.830360 -7.036098 11.976356 -132.068497 15.548432 17.465610 2.977873 -0.175321 8.584645 -0.768854 -1.067724 0.000000 0.000000 0.000000 8.613866 -0.684846 -1.055474 6.128079 42.115237 2.848592 7.484601 47.433874 -29.136928 -0.000000 -0.000001 -0.000000 -2.314307 -19.181500 9.645826 0.000000 0.000000 0.000000 -51.327355 -47.749525 -40.680631 -278.688766 -149.109450 -272.924797 -39.791630 -8.511753 26.630684 -1.432202 -10.034955 7.701100 0.670879 15.323975 -3.924344 -0.521567 -3.699317 0.174548 0.000002 -0.000001 0.000000 13.261840 -0.987894 16.342221 -0.165940 0.299368 -25.445542 -0.143266 0.296726 -26.596193 0.000001 -0.000002 -0.000003 8.548228 -0.380224 4.744687 0.222579 0.632703 -24.241689 0.425345 0.188817 -38.696987 0.000000 0.000001 0.000004 6.164210 3.070769 -10.552875 0.029706 0.292414 -24.465411 0.388929 0.788384 -36.480389 -0.000000 -0.000001 0.000003 -5.502668 7.612672 -8.221728 0.203299 0.257467 -40.928297 0.239935 0.228472 -40.626740 0.000000 -0.000001 0.000000 -5.432976 22.644167 5.004593 0.000000 0.000000 0.000000 -52.631676 7.939688 23.713474 118.664182 44.432703 -113.869253 -26.452915 -2.612702 -41.869480 0.242774 10.291370 -10.807266 1.082969 -16.586930 3.348081 3.358782 -13.364648 -8.312686 0.000000 -0.000001 -0.000000 19.476559 11.202829 -14.310230 -0.119538 -0.321873 17.065479 -0.094947 -0.296265 22.286455 -0.000001 -0.000001 -0.000003 4.333498 2.440267 -5.783583 0.339401 -0.451951 25.920223 0.460311 0.162520 38.074773 -0.000001 0.000000 -0.000000 -7.040585 -10.715431 4.750271 0.113490 -0.086660 25.185790 0.447892 -0.468542 32.294944 -0.000001 0.000001 0.000000 -19.515418 -20.289270 5.002056 0.220584 -0.082069 35.874599 0.255337 -0.051067 35.501619 -0.000000 0.000001 0.000000 -104.755841 -25.182735 4.073128 83.998035 -12.299473 -34.564346 42.330886 -13.007662 -27.472085 -0.342596 0.177205 0.138318 0.000001 -0.000002 -0.000002 -13.525869 30.141796 -1.930270 26.821673 18.458400 -4.153217 -8.117162 11.175566 7.671911 -1.096075 1.398695 1.174375 0.000000 0.000000 0.000000 
-20.779427 114.246033 -7.114997 12.272116 -134.137976 16.131083 17.847182 3.049975 -0.523863 8.890005 -0.672223 -1.209725 0.000000 0.000000 0.000000 8.918201 -0.587165 -1.199359 6.896476 42.518167 2.371668 7.475155 47.851038 -29.457527 0.000000 0.000000 0.000000 -2.111842 -18.783210 11.594748 0.000000 0.000000 0.000000 -57.541379 -46.188724 -44.501985 -278.771821 -147.854321 -272.712460 -38.912421 -6.764443 26.414753 -1.404036 -9.882338 7.759687 0.819677 15.719829 -3.760167 -0.400103 -3.279214 0.388867 0.000001 0.000001 0.000000 13.267461 -0.989203 15.858524 -0.165519 0.299780 -25.929329 -0.143081 0.297218 -27.079940 0.000001 -0.000002 0.000001 8.542911 -0.376242 4.260960 0.223903 0.635162 -24.725442 0.427278 0.190938 -39.180701 0.000000 0.000002 0.000000 6.159680 3.076359 -11.036448 0.030926 0.295201 -24.949199 0.390959 0.790736 -36.964157 0.000000 0.000000 0.000001 -5.511946 7.619109 -8.705119 0.205046 0.259176 -41.412000 0.241718 0.230295 -41.110478 0.000000 -0.000003 -0.000001 -4.710945 23.091013 2.504143 0.000000 0.000000 0.000000 -57.009096 7.316085 23.385412 120.495288 44.831367 -115.618300 -25.258979 -3.285256 -43.084966 0.246955 10.259861 -10.819163 1.096939 -16.624499 3.332870 3.362450 -13.389919 -8.323980 -0.000000 -0.000001 0.000000 19.476640 11.202796 -14.266140 -0.119525 -0.321932 17.109824 -0.094771 -0.296216 22.330767 -0.000000 0.000000 -0.000000 4.332938 2.440180 -5.739244 0.339598 -0.451888 25.964477 0.460627 0.162691 38.119088 0.000000 0.000000 -0.000000 -7.040676 -10.715778 4.794422 0.113486 -0.087196 25.230032 0.448350 -0.468590 32.339248 -0.000001 0.000001 0.000000 -19.515292 -20.289413 5.046198 0.220730 -0.082240 35.918787 0.255743 -0.051129 35.545879 -0.000002 0.000002 0.000002 -106.913470 -24.947766 4.704584 83.185441 -12.809327 -34.998446 41.961523 -13.454717 -29.096903 -0.342621 0.177262 0.138238 -0.000002 0.000003 0.000001 -12.123713 31.514442 -2.479677 26.091232 18.975042 -4.115899 -8.015433 11.302235 7.685803 -1.096910 1.399001 1.174560 0.000000 -0.000000 0.000000 
-21.363806 114.611916 -7.194289 12.601909 -135.999926 16.751099 18.206306 3.108436 -0.857235 9.182356 -0.573633 -1.355683 0.000000 0.000000 0.000000 9.209421 -0.487405 -1.347776 7.658620 42.872548 1.900507 7.470979 48.226135 -29.784836 -0.000000 -0.000002 -0.000001 -1.708635 -18.296962 14.299378 0.000000 0.000000 0.000000 -63.045173 -44.076652 -47.688651 -278.832719 -146.576788 -272.650141 -36.274213 -4.437884 25.502302 -1.375939 -9.729483 7.818307 0.965341 16.109918 -3.599193 -0.281724 -2.865520 0.599172 0.000002 -0.000000 0.000000 13.273246 -0.990510 15.382339 -0.165115 0.300090 -26.405484 -0.142908 0.297759 -27.556135 -0.000001 0.000000 -0.000001 8.537672 -0.372277 3.784801 0.225185 0.637525 -25.201702 0.429224 0.193025 -39.656901 0.000001 0.000001 -0.000002 6.155162 3.082811 -11.512412 0.032057 0.297846 -25.425343 0.392941 0.793101 -37.440324 0.000002 0.000002 -0.000001 -5.521705 7.626086 -9.180910 0.206767 0.260800 -41.888194 0.243503 0.232081 -41.586659 0.000000 0.000000 0.000000 -3.961797 23.402294 0.011318 0.000000 0.000000 0.000000 -60.996731 6.507648 22.843732 122.036137 45.207055 -117.083239 -24.195653 -3.692350 -44.353268 0.251444 10.226656 -10.831636 1.112201 -16.666077 3.315897 3.366207 -13.415584 -8.335306 -0.000000 0.000002 0.000001 19.476744 11.202712 -14.217334 -0.119493 -0.321976 17.158801 -0.094589 -0.296226 22.379712 -0.000001 -0.000000 0.000002 4.332357 2.440072 -5.690259 0.339847 -0.451868 26.013416 0.460917 0.162865 38.168050 -0.000000 -0.000000 -0.000001 -7.040680 -10.716131 4.843280 0.113531 -0.087713 25.279036 0.448817 -0.468685 32.388221 0.000002 0.000001 -0.000000 -19.514977 -20.289482 5.094953 0.220871 -0.082426 35.967776 0.256171 -0.051187 35.594824 -0.000002 0.000001 -0.000000 -108.925671 -24.667447 5.178658 82.405932 -13.543154 -35.336168 41.259004 -13.796927 -30.812001 -0.342533 0.177235 0.138263 0.000002 -0.000000 -0.000001 -10.706433 32.779191 -3.115603 25.492356 19.421848 -4.088697 -8.000181 11.386547 7.701446 -1.096051 1.399122 1.174710 -0.000000 0.000002 -0.000000 
-22.099463 114.917587 -7.309647 12.933841 -137.642122 17.409131 18.538790 3.158508 -1.175488 9.456794 -0.479581 -1.500251 0.000000 0.000000 0.000000 9.482784 -0.391733 -1.495371 8.404166 43.182464 1.436503 7.469487 48.560729 -30.108994 -0.000001 -0.000000 -0.000000 -1.353449 -17.783125 16.989122 0.000000 0.000000 0.000000 -68.037679 -42.061825 -50.427307 -278.809251 -145.498179 -272.534930 -32.375295 -1.747012 24.022496 -1.348028 -9.576556 7.876798 1.107504 16.493350 -3.441756 -0.166609 -2.459197 0.805022 -0.000002 -0.000002 -0.000001 13.279096 -0.991810 14.914910 -0.164718 0.300419 -26.872905 -0.142757 0.298250 -28.023535 -0.000000 0.000003 0.000001 8.532591 -0.368294 3.317342 0.226401 0.639833 -25.669048 0.431175 0.195030 -40.124332 -0.000001 0.000000 -0.000001 6.150684 3.089442 -11.979643 0.033254 0.300458 -25.892764 0.394936 0.795404 -37.907758 -0.000002 -0.000001 0.000001 -5.531909 7.633415 -9.647842 0.208431 0.262441 -42.355608 0.245245 0.233909 -42.054086 -0.000001 -0.000001 -0.000001 -3.221328 23.818389 -2.377806 0.000000 0.000000 0.000000 -64.631007 5.220868 21.642978 123.514955 45.342023 -118.648446 -23.655937 -3.889356 -45.553192 0.256037 10.192101 -10.844657 1.128772 -16.711233 3.297538 3.369940 -13.441286 -8.346705 0.000000 0.000001 0.000001 19.476672 11.202589 -14.164250 -0.119396 -0.322006 17.211848 -0.094462 -0.296226 22.432829 -0.000003 0.000000 0.000001 4.331633 2.439930 -5.637023 0.340113 -0.451851 26.066666 0.461239 0.163013 38.221233 0.000000 0.000000 -0.000000 -7.040682 -10.716444 4.896201 0.113575 -0.088285 25.332174 0.449261 -0.468804 32.441353 0.000000 0.000000 0.000001 -19.514627 -20.289494 5.147735 0.221079 -0.082615 36.020915 0.256559 -0.051301 35.647953 0.000000 -0.000001 -0.000000 -110.940502 -24.237128 5.378269 81.902335 -14.188322 -35.483403 40.951728 -14.189916 -32.530186 -0.342481 0.177228 0.138322 0.000001 0.000002 -0.000001 -9.227416 33.921431 -3.898497 25.108892 19.803741 -4.068009 -8.188668 11.431600 7.677063 -1.091672 1.399532 1.174737 -0.000000 -0.000002 -0.000000 
